<svg width="32" height="32" viewBox="0 0 32 32" fill="none" xmlns="http://www.w3.org/2000/svg">
<path d="M17 26C17.2652 26 17.5196 26.1053 17.7071 26.2929C17.8946 26.4804 18 26.7348 18 27C18 27.2652 17.8946 27.5196 17.7071 27.7071C17.5196 27.8946 17.2652 28 17 28H5C4.73478 28 4.48043 27.8946 4.29289 27.7071C4.10536 27.5196 4 27.2652 4 27V15C4 14.7348 4.10536 14.4804 4.29289 14.2929C4.48043 14.1053 4.73478 14 5 14C5.26522 14 5.51957 14.1053 5.70711 14.2929C5.89464 14.4804 6 14.7348 6 15V24.586L26.292 4.29198C26.385 4.19901 26.4954 4.12525 26.6168 4.07493C26.7383 4.02462 26.8685 3.99872 27 3.99872C27.1315 3.99872 27.2617 4.02462 27.3832 4.07493C27.5046 4.12525 27.615 4.19901 27.708 4.29198C27.801 4.38496 27.8747 4.49534 27.925 4.61681C27.9754 4.73829 28.0013 4.86849 28.0013 4.99998C28.0013 5.13147 27.9754 5.26167 27.925 5.38315C27.8747 5.50463 27.801 5.61501 27.708 5.70798L7.414 26H17Z" fill="#FFF9EB"/>
</svg>
